<svg width="59" height="75" viewBox="0 0 59 75" fill="none" xmlns="http://www.w3.org/2000/svg">
<rect x="42.9978" y="0.327057" width="15.6787" height="73.4421" rx="1" fill="#FFD375"/>
<path d="M58.6763 19.7191C52.4465 19.2375 49.0025 19.2072 42.9976 19.7191" stroke="white"/>
<path d="M58.6763 11.4272C52.4465 10.9456 49.0025 10.9153 42.9976 11.4272" stroke="white"/>
<path d="M58.6763 8.9516C52.4465 8.47006 49.0025 8.43971 42.9976 8.9516" stroke="white"/>
<path d="M58.6763 49.8386C52.4465 50.3201 49.0025 50.3505 42.9976 49.8386" stroke="white"/>
<path d="M58.6763 58.1305C52.4465 58.612 49.0025 58.6424 42.9976 58.1305" stroke="white"/>
<path d="M58.6763 60.5661C52.4465 61.0476 49.0025 61.078 42.9976 60.5661" stroke="white"/>
<path d="M55.7009 34.1599C55.7009 36.1258 55.1688 37.883 54.3347 39.1341C53.4983 40.3887 52.3978 41.0867 51.2497 41.0867C50.1017 41.0867 49.0012 40.3887 48.1648 39.1341C47.3307 37.883 46.7986 36.1258 46.7986 34.1599C46.7986 32.1941 47.3307 30.4369 48.1648 29.1858C49.0012 27.9312 50.1017 27.2332 51.2497 27.2332C52.3978 27.2332 53.4983 27.9312 54.3347 29.1858C55.1688 30.4369 55.7009 32.1941 55.7009 34.1599Z" stroke="white"/>
<rect x="25.6675" y="0.327057" width="15.6787" height="73.4421" rx="1" fill="#FFD375"/>
<path d="M41.3462 19.7191C35.1164 19.2375 31.6725 19.2072 25.6675 19.7191" stroke="white"/>
<path d="M41.3462 11.4272C35.1164 10.9456 31.6725 10.9153 25.6675 11.4272" stroke="white"/>
<path d="M41.3462 8.9516C35.1164 8.47006 31.6725 8.43971 25.6675 8.9516" stroke="white"/>
<path d="M41.3462 49.8386C35.1164 50.3201 31.6725 50.3505 25.6675 49.8386" stroke="white"/>
<path d="M41.3462 58.1305C35.1164 58.612 31.6725 58.6424 25.6675 58.1305" stroke="white"/>
<path d="M41.3462 60.5661C35.1164 61.0476 31.6725 61.078 25.6675 60.5661" stroke="white"/>
<path d="M38.3706 34.1599C38.3706 36.1258 37.8384 37.883 37.0044 39.1341C36.168 40.3887 35.0674 41.0867 33.9194 41.0867C32.7714 41.0867 31.6708 40.3887 30.8344 39.1341C30.0004 37.883 29.4683 36.1258 29.4683 34.1599C29.4683 32.1941 30.0004 30.4369 30.8344 29.1858C31.6708 27.9312 32.7714 27.2332 33.9194 27.2332C35.0674 27.2332 36.168 27.9312 37.0044 29.1858C37.8384 30.4369 38.3706 32.1941 38.3706 34.1599Z" stroke="white"/>
<rect x="10.3032" y="11.82" width="15.6787" height="61.0642" rx="1" transform="rotate(9.71376 10.3032 11.82)" fill="#FFD375"/>
<path d="M24.1997 23.5624C18.1268 22.1166 14.7365 21.5106 8.74584 20.917" stroke="white"/>
<path d="M24.5471 21.5335C18.4742 20.0878 15.0839 19.4818 9.09325 18.8881" stroke="white"/>
<path d="M17.6479 61.8376C11.4399 61.1811 8.04111 60.6249 2.19408 59.1922" stroke="white"/>
<path d="M17.3062 63.8337C11.0981 63.1772 7.69931 62.621 1.85229 61.1883" stroke="white"/>
</svg>
